PathFileType	4	(X/Y/Z)	Kaydara																																																																																																																									
DataRate	CameraRate	NumFrames	NumMarkers	Units	OrigDataRate	OrigDataStartFrame	OrigNumFrames																																																																																																																					
30	30	9	41	mm	30	89	354																																																																																																																					
Frame#	Time	SALE_LFHD			SALE_RFHD			SALE_LBHD			SALE_RBHD			SALE_LFTShould			SALE_RFTShould			SALE_LRRShould			SALE_RRRShould			SALE_T10			SALE_STRN			SALE_TRUN			SALE_LSHO			SALE_LUPA			SALE_LELB			SALE_LFRM			SALE_LWRA			SALE_LWRB			SALE_LFIN			SALE_RSHO			SALE_RUPA			SALE_RELB			SALE_RFRM			SALE_RWRB			SALE_RFIN			SALE_LFWT			SALE_RFWT			SALE_LBWT			SALE_RBWT			SALE_LTHI			SALE_LKNE			SALE_RWRA			SALE_LSHN			SALE_LANK			SALE_LHEE			SALE_LTOE			SALE_RTHI			SALE_RKNE			SALE_RSHN			SALE_RANK			SALE_RHEE			SALE_RTOE		
		X1	Y1	Z1	X2	Y2	Z2	X3	Y3	Z3	X4	Y4	Z4	X5	Y5	Z5	X6	Y6	Z6	X7	Y7	Z7	X8	Y8	Z8	X9	Y9	Z9	X10	Y10	Z10	X11	Y11	Z11	X12	Y12	Z12	X13	Y13	Z13	X14	Y14	Z14	X15	Y15	Z15	X16	Y16	Z16	X17	Y17	Z17	X18	Y18	Z18	X19	Y19	Z19	X20	Y20	Z20	X21	Y21	Z21	X22	Y22	Z22	X23	Y23	Z23	X24	Y24	Z24	X25	Y25	Z25	X26	Y26	Z26	X27	Y27	Z27	X28	Y28	Z28	X29	Y29	Z29	X30	Y30	Z30	X31	Y31	Z31	X32	Y32	Z32	X33	Y33	Z33	X34	Y34	Z34	X35	Y35	Z35	X36	Y36	Z36	X37	Y37	Z37	X38	Y38	Z38	X39	Y39	Z39	X40	Y40	Z40	X41	Y41	Z41
																																																																																																																												
89	2.943	181.22881	1611.54007	-1903.60535	63.41793	1615.11993	-1960.81909	234.86458	1646.77551	-2017.45712	120.04598	1648.66959	-2068.83286	251.06064	1384.84772	-2025.75974	109.55146	1382.47543	-2024.97955	244.39711	1447.52228	-2134.59869	93.08502	1452.02332	-2126.32751	167.60099	1299.32175	-2208.16788	176.13953	1309.35287	-1982.14035	174.32407	1221.73325	-1944.90906	366.07174	1413.46924	-2091.0733	405.47844	1194.83376	-2100.88943	389.88461	1085.65994	-2119.39407	415.75291	980.8284	-2084.90692	349.65324	845.80559	-2020.39948	416.66603	836.72745	-2054.43542	410.55424	795.11452	-2005.27145	0.93751	1414.99863	-2082.17682	-38.25916	1185.68214	-2144.61975	-61.97108	1084.83238	-2096.44699	-56.99923	971.72745	-2105.85434	-67.01403	834.00955	-2056.40106	-67.98254	795.6797	-2001.16074	299.97999	979.65111	-1996.86737	19.57798	978.25005	-2014.93484	250.5221	1037.71118	-2168.78754	72.90366	1042.85294	-2178.87436	299.14202	675.30251	-2160.22278	285.85936	505.9483	-2082.02713	-14.17574	846.43646	-2009.31107	278.68088	307.73895	-2083.92853	272.90709	123.42997	-2132.38113	234.24826	75.09904	-2194.93469	244.95491	86.35738	-1997.75391	18.84056	721.89041	-2168.3757	34.4681	564.12296	-2063.41278	87.79645	375.64003	-2078.06091	42.30073	124.54934	-2130.15045	53.78424	78.14239	-2007.39105	89.43658	62.07726	-2198.03787
90	2.977	188.25653	1608.81943	-1902.85538	67.26858	1612.19025	-1950.41367	232.22992	1648.12698	-2021.55075	113.10191	1648.87817	-2062.67151	250.55849	1385.68161	-2027.11319	108.82054	1382.72263	-2026.10962	243.43023	1447.43637	-2136.27548	92.23034	1451.6452	-2127.89063	167.02215	1298.68881	-2208.99292	175.69609	1310.05966	-1983.12759	173.82555	1222.68387	-1945.29083	365.25188	1413.81317	-2092.79755	404.79462	1195.1828	-2102.35779	389.14822	1086.0408	-2120.41794	415.39627	981.28372	-2085.97717	349.58405	846.23047	-2021.09024	416.53793	837.13791	-2055.39169	410.70999	795.53413	-2006.25519	0.05633	1414.6611	-2083.77167	-38.52411	1185.04143	-2145.78003	-62.29414	1084.3457	-2097.22672	-57.02577	971.08742	-2105.77621	-66.74707	833.73558	-2055.40939	-67.71939	795.81604	-1999.8793	299.77011	979.57275	-1996.54297	19.56549	978.1356	-2014.74701	250.52246	1037.81387	-2168.52142	72.77466	1042.89879	-2178.67432	299.21577	675.33661	-2160.08713	285.79218	505.93735	-2081.84067	-13.97292	846.68076	-2008.26401	278.6825	307.65726	-2083.84689	272.92955	123.46391	-2132.35107	234.23283	75.08327	-2194.92386	244.9658	86.38172	-1997.79266	18.74451	721.85669	-2168.23257	34.45598	564.0884	-2063.35327	87.79741	375.63049	-2078.05496	42.30267	124.52322	-2130.12482	53.76493	78.12495	-2007.39624	89.45976	62.08666	-2198.02124
91	3.01	197.18853	1608.48541	-1905.01129	71.62744	1610.1387	-1942.16629	229.79036	1650.06256	-2028.86093	108.58829	1647.93304	-2056.57104	248.3111	1386.03668	-2030.31967	108.19457	1382.84393	-2026.92368	242.28703	1447.32925	-2137.61353	91.13077	1451.27533	-2129.03885	166.2122	1298.12744	-2209.67484	175.23041	1310.62622	-1983.82431	173.49911	1223.37875	-1945.47821	364.31793	1414.13177	-2094.38873	404.32213	1195.76965	-2104.13284	388.79494	1086.53931	-2121.89133	415.29228	981.80977	-2087.05963	349.70825	846.97403	-2021.18057	416.68777	837.75162	-2055.79422	411.10073	796.40305	-2006.39389	-0.86725	1414.25232	-2084.76807	-38.94665	1184.64828	-2146.47308	-62.73681	1083.85986	-2097.65991	-57.23644	970.63187	-2105.77103	-66.47	833.3934	-2054.65729	-67.46396	795.78712	-1998.93646	299.60941	979.48189	-1996.38062	19.51546	977.86217	-2014.4696	250.41948	1037.8611	-2168.33374	72.5677	1042.92526	-2178.40179	299.1745	675.34348	-2160.03326	285.79685	505.96783	-2081.75858	-13.75622	846.73271	-2007.57248	278.60123	307.56994	-2083.80371	272.87741	123.43295	-2132.34833	234.23592	75.1467	-2194.93134	244.94785	86.35324	-1997.79114	18.62954	721.82663	-2168.07175	34.45576	564.0731	-2063.27759	87.7716	375.61008	-2077.99103	42.29858	124.52694	-2130.12009	53.77884	78.14142	-2007.37122	89.45932	62.03931	-2198.00461
92	3.043	203.2378	1608.14743	-1906.24939	75.53583	1609.02176	-1936.11359	228.12988	1650.75287	-2031.40381	105.13368	1647.49557	-2052.15836	247.00602	1385.73181	-2031.7305	107.35367	1382.88071	-2027.16171	241.1348	1447.39899	-2138.41415	90.02202	1451.02448	-2129.34433	165.27746	1297.85233	-2209.94553	174.73053	1310.91934	-1984.07639	173.28873	1223.72124	-1945.54779	363.25897	1414.39438	-2095.44937	403.92807	1196.25504	-2105.79971	388.6813	1086.94122	-2123.44803	415.43873	982.27074	-2088.04993	349.9519	847.88231	-2020.77621	417.06703	838.4491	-2055.75974	411.81568	797.56981	-2006.06827	-1.76501	1413.86963	-2084.89655	-39.48515	1184.00436	-2146.38245	-63.17051	1083.28758	-2097.52991	-57.33875	970.09666	-2105.59143	-66.22571	832.91023	-2054.26498	-67.17224	795.44403	-1998.47534	299.54729	979.4873	-1996.2886	19.60789	977.75711	-2014.09348	250.23685	1037.90588	-2168.33527	72.23012	1042.92374	-2178.14362	298.96669	675.35393	-2160.07172	285.72548	505.94292	-2081.77597	-13.5953	846.5947	-2007.13303	278.59238	307.56601	-2083.86642	272.85915	123.39268	-2132.22229	234.22514	75.11508	-2194.91394	244.96981	86.37515	-1997.81555	18.50087	721.83258	-2167.85843	34.44742	563.99124	-2063.11539	87.76889	375.6015	-2077.91336	42.31016	124.50703	-2130.10361	53.80449	78.14483	-2007.36252	89.45175	62.06537	-2197.99774
93	3.077	208.83471	1608.40317	-1908.49411	78.5456	1608.04932	-1932.63641	227.60155	1651.68243	-2033.11279	102.52598	1647.21939	-2048.57513	249.58914	1387.94556	-2028.7735	106.90681	1382.9808	-2026.96136	240.16378	1447.42645	-2139.09195	89.06528	1450.9288	-2129.23248	164.13321	1297.65594	-2209.9585	174.56223	1311.1586	-1984.10675	173.26078	1224.06776	-1945.40604	362.56321	1414.70718	-2096.67023	403.6787	1196.64955	-2107.26089	388.703	1087.29385	-2124.81384	415.74596	982.67441	-2088.84598	350.37308	848.77106	-2020.3656	417.58083	839.10065	-2055.5658	412.64034	798.64937	-2005.46188	-2.46619	1413.76389	-2084.28024	-40.21016	1183.91167	-2145.70129	-63.4937	1083.07877	-2096.8338	-57.56276	969.93073	-2105.1947	-66.08685	832.61459	-2054.22302	-66.93099	795.00443	-1998.51166	299.54363	979.44756	-1996.4888	19.59594	977.48001	-2013.58841	249.90654	1038.05779	-2168.40759	71.8053	1042.96829	-2177.80472	298.78767	675.35706	-2160.28122	285.68775	505.97149	-2081.85272	-13.47768	846.35544	-2007.10861	278.566	307.61564	-2083.90625	272.84599	123.46616	-2132.36755	234.18894	75.12092	-2194.92966	245.00484	86.40695	-1997.80899	18.19326	721.76453	-2167.59216	34.5555	563.94939	-2063.07587	87.81619	375.56938	-2077.91809	42.30338	124.48546	-2130.08347	53.86912	78.14405	-2007.36832	89.4153	62.0811	-2198.00705
94	3.11	213.37482	1608.41812	-1910.66544	84.87551	1605.82993	-1927.388	225.7551	1652.93289	-2035.29526	100.45351	1647.2612	-2045.52612	249.52131	1388.12714	-2029.50531	106.84622	1383.38043	-2026.82877	239.35747	1447.39868	-2139.97223	88.33086	1450.94498	-2129.24408	163.01285	1297.40845	-2209.9646	174.55769	1311.59882	-1984.05243	173.5001	1224.7905	-1945.04166	361.99959	1414.94766	-2098.06442	403.57384	1196.89453	-2108.26416	388.93242	1087.50511	-2125.6221	416.13747	982.97661	-2089.15985	350.79567	849.42444	-2019.93515	418.20488	839.55414	-2055.22171	413.3683	799.34998	-2004.86053	-2.93046	1413.992	-2083.55255	-40.87136	1184.05762	-2144.27643	-63.6511	1083.26004	-2095.47821	-57.8368	970.10323	-2104.31488	-66.24246	832.5914	-2054.04831	-66.76585	794.6019	-1998.65326	299.59244	979.34799	-1996.76193	19.80874	977.53212	-2013.03879	249.42327	1038.37357	-2168.38715	71.29766	1043.16757	-2177.25586	298.59863	675.4351	-2160.62714	285.69012	505.98579	-2082.01492	-13.36286	846.10825	-2007.02408	278.55244	307.63617	-2084.04083	272.83106	123.45001	-2132.43622	234.18406	75.05362	-2194.94171	245.01104	86.39506	-1997.81677	17.80871	721.76353	-2167.38235	35.05624	563.8842	-2063.32596	87.76309	375.55996	-2077.85156	42.29592	124.46001	-2130.00763	53.94385	78.11423	-2007.38297	89.40256	62.06988	-2198.03543
95	3.143	217.0989	1607.98401	-1912.39609	88.07224	1604.23325	-1924.5874	224.55019	1654.43161	-2036.85242	98.95457	1647.51221	-2042.5058	249.45753	1388.41171	-2030.48523	106.9586	1383.88367	-2026.83899	238.70659	1447.2876	-2141.09039	87.69001	1450.99014	-2129.50455	161.97828	1297.01172	-2209.88541	174.82689	1312.37213	-1984.07196	174.02651	1225.78812	-1944.69131	361.5004	1414.90509	-2099.46915	403.62865	1197.17064	-2108.9827	389.34574	1087.68898	-2125.82733	416.63837	983.27888	-2088.89481	351.17008	849.71474	-2019.64737	418.8607	839.96162	-2054.6965	413.946	799.84039	-2004.32846	-3.26194	1414.25568	-2083.0452	-41.54529	1184.35318	-2142.83737	-63.78296	1083.50815	-2093.71918	-58.21878	970.54062	-2103.02719	-66.72599	832.81479	-2053.56018	-66.77017	794.36195	-1998.42316	299.6417	979.21082	-1997.01263	19.83378	977.20284	-2012.33063	248.8658	1038.68385	-2168.32138	70.69244	1043.4922	-2176.58188	298.35318	675.43655	-2161.09131	285.65315	505.97889	-2082.25143	-13.40164	845.84198	-2006.87836	278.5195	307.67529	-2084.18488	272.81689	123.42134	-2132.49649	234.18625	75.06779	-2194.96231	245.03605	86.38266	-1997.84348	17.41271	721.87813	-2167.25494	35.4537	563.99155	-2063.72437	87.73532	375.56389	-2077.81448	42.25903	124.40252	-2129.96887	54.02843	78.15963	-2007.40128	89.3638	62.051	-2198.04611
96	3.177	220.05859	1606.92123	-1913.55865	90.7044	1602.29858	-1922.19818	222.81195	1656.23138	-2038.52615	97.97765	1647.8598	-2039.59885	249.35764	1388.66455	-2031.57211	107.00402	1384.52148	-2027.10632	238.10083	1447.19818	-2142.41806	87.15661	1450.93506	-2130.0174	161.02657	1296.46164	-2209.88037	175.20382	1313.23257	-1984.30069	174.54279	1226.75858	-1944.29871	361.17893	1415.13733	-2101.40549	403.71117	1197.35634	-2109.39392	389.90681	1087.55157	-2125.45105	417.14233	983.62488	-2088.26553	351.35517	849.92447	-2019.53766	419.54121	840.3849	-2053.97964	414.13548	800.16907	-2003.60474	-3.5592	1414.46564	-2082.85477	-42.30073	1184.44435	-2141.72104	-63.83713	1083.67203	-2092.00775	-58.5896	970.80864	-2101.62613	-67.23831	833.00888	-2052.57263	-67.05596	794.40384	-1997.53632	299.68399	979.021	-1997.20795	19.93056	976.84326	-2011.56021	248.28497	1038.93829	-2168.1723	70.019	1043.70872	-2175.75684	298.04203	675.46921	-2161.50391	285.59088	506.00586	-2082.48199	-13.53164	845.50117	-2006.21048	278.43	307.66485	-2084.34128	272.79049	123.44952	-2132.48383	234.13029	75.09824	-2194.9823	245.10012	86.38295	-1997.87674	16.97798	721.99196	-2166.87973	36.08042	564.24049	-2064.07822	87.62569	375.6023	-2077.75009	42.24446	124.40139	-2129.93118	54.08865	78.14729	-2007.4147	89.34888	62.05257	-2198.04413
97	3.21	222.11248	1605.27374	-1913.99811	92.81439	1599.97223	-1920.20599	222.46561	1657.03583	-2037.62573	97.36901	1648.06427	-2036.7395	249.04774	1388.9386	-2032.68021	107.0541	1385.05341	-2027.66907	237.55054	1447.05002	-2143.72482	86.69123	1450.85052	-2130.67535	160.2277	1295.89539	-2209.99466	175.45	1313.9444	-1984.62952	174.97204	1227.71141	-1944.1629	360.76698	1415.11383	-2103.00247	403.91304	1197.5531	-2109.90189	390.35439	1087.87025	-2125.57587	417.55859	983.90762	-2087.70599	351.37978	850.1844	-2019.44626	419.96971	840.72807	-2053.22464	414.05499	800.56671	-2002.84271	-3.77256	1414.5993	-2082.92313	-42.584	1184.42039	-2140.76828	-63.99346	1083.85757	-2090.71823	-59.03665	970.95314	-2100.20432	-67.79966	833.22708	-2051.03912	-67.37699	794.62135	-1996.04614	299.69418	978.83644	-1997.26425	20.00376	976.71761	-2010.63995	247.69474	1039.13071	-2168.04245	69.31249	1043.90282	-2174.95804	297.69566	675.49942	-2161.77933	285.47657	505.98324	-2082.67578	-13.52357	845.76279	-2005.15121	278.38467	307.63882	-2084.48456	272.72793	123.44946	-2132.51099	234.07345	75.06825	-2194.9881	245.12732	86.39826	-1997.89215	16.41461	722.0507	-2166.36108	36.36285	564.39728	-2064.10736	87.56572	375.5978	-2077.65579	42.20396	124.42961	-2129.90234	54.07569	78.16335	-2007.38831	89.29962	62.07959	-2198.05939
